<svg width="22" height="24" viewBox="0 0 22 24" fill="none" xmlns="http://www.w3.org/2000/svg">
<mask id="path-1-outside-1_40117_17" maskUnits="userSpaceOnUse" x="0.162598" y="-0.26667" width="22" height="25" fill="black">
<rect fill="white" x="0.162598" y="-0.26667" width="22" height="25"/>
<path d="M17.5001 12.5968V10.663C17.5174 9.17108 17.0299 7.71776 16.1168 6.53762C15.2038 5.35746 13.919 4.52059 12.4708 4.16309C13.0304 3.57404 13.1848 2.70871 12.8649 1.96326C12.5439 1.21677 11.8107 0.73333 10.9982 0.73333C10.1857 0.73333 9.45239 1.21677 9.13145 1.96326C8.81152 2.70873 8.9659 3.57404 9.5255 4.16309C8.09652 4.49621 6.82202 5.30262 5.90994 6.45232C4.9969 7.601 4.50025 9.02489 4.50025 10.4925V12.5968C4.50736 15.5107 3.34954 18.3057 1.28275 20.3602C1.16595 20.476 1.1304 20.6517 1.19337 20.804C1.25736 20.9563 1.40564 21.0559 1.57118 21.0549H8.18896C8.40123 22.4442 9.59561 23.47 11.0001 23.47C12.4045 23.47 13.5991 22.4442 13.8112 21.0549H20.429C20.5945 21.0559 20.7428 20.9563 20.8068 20.804C20.8698 20.6517 20.8342 20.476 20.7174 20.3602C18.6506 18.3056 17.4929 15.5107 17.4999 12.5968L17.5001 12.5968ZM11.0001 1.55485C11.4927 1.55485 11.9375 1.85141 12.1264 2.30742C12.3143 2.76242 12.2107 3.28648 11.8624 3.63587C11.513 3.98421 10.9889 4.08782 10.5339 3.89992C10.0779 3.71102 9.78134 3.26617 9.78134 2.7736C9.78134 2.10025 10.3267 1.55485 11.0001 1.55485ZM11.0001 22.6798C10.0342 22.6798 9.20243 22.0004 9.00948 21.0549H12.9906C12.7976 22.0004 11.9658 22.6798 11 22.6798H11.0001ZM2.50121 20.2424C4.32324 18.1126 5.32169 15.3999 5.31233 12.5968V10.4924C5.3103 8.93443 5.9471 7.44442 7.07443 6.3701C8.20176 5.29456 9.72019 4.72987 11.276 4.80503C12.7588 4.89644 14.1493 5.5576 15.1568 6.64838C16.1653 7.74017 16.7127 9.1773 16.6873 10.663V12.5968C16.6782 15.3999 17.6766 18.1127 19.4985 20.2424H2.50121Z"/>
</mask>
<path d="M17.5001 12.5968V10.663C17.5174 9.17108 17.0299 7.71776 16.1168 6.53762C15.2038 5.35746 13.919 4.52059 12.4708 4.16309C13.0304 3.57404 13.1848 2.70871 12.8649 1.96326C12.5439 1.21677 11.8107 0.73333 10.9982 0.73333C10.1857 0.73333 9.45239 1.21677 9.13145 1.96326C8.81152 2.70873 8.9659 3.57404 9.5255 4.16309C8.09652 4.49621 6.82202 5.30262 5.90994 6.45232C4.9969 7.601 4.50025 9.02489 4.50025 10.4925V12.5968C4.50736 15.5107 3.34954 18.3057 1.28275 20.3602C1.16595 20.476 1.1304 20.6517 1.19337 20.804C1.25736 20.9563 1.40564 21.0559 1.57118 21.0549H8.18896C8.40123 22.4442 9.59561 23.47 11.0001 23.47C12.4045 23.47 13.5991 22.4442 13.8112 21.0549H20.429C20.5945 21.0559 20.7428 20.9563 20.8068 20.804C20.8698 20.6517 20.8342 20.476 20.7174 20.3602C18.6506 18.3056 17.4929 15.5107 17.4999 12.5968L17.5001 12.5968ZM11.0001 1.55485C11.4927 1.55485 11.9375 1.85141 12.1264 2.30742C12.3143 2.76242 12.2107 3.28648 11.8624 3.63587C11.513 3.98421 10.9889 4.08782 10.5339 3.89992C10.0779 3.71102 9.78134 3.26617 9.78134 2.7736C9.78134 2.10025 10.3267 1.55485 11.0001 1.55485ZM11.0001 22.6798C10.0342 22.6798 9.20243 22.0004 9.00948 21.0549H12.9906C12.7976 22.0004 11.9658 22.6798 11 22.6798H11.0001ZM2.50121 20.2424C4.32324 18.1126 5.32169 15.3999 5.31233 12.5968V10.4924C5.3103 8.93443 5.9471 7.44442 7.07443 6.3701C8.20176 5.29456 9.72019 4.72987 11.276 4.80503C12.7588 4.89644 14.1493 5.5576 15.1568 6.64838C16.1653 7.74017 16.7127 9.1773 16.6873 10.663V12.5968C16.6782 15.3999 17.6766 18.1127 19.4985 20.2424H2.50121Z" fill="#213F7D"/>
<path d="M17.5001 12.5968L17.6089 12.9817L17.9001 12.8994V12.5968H17.5001ZM17.5001 10.663L17.1001 10.6584V10.663H17.5001ZM16.1168 6.53762L15.8004 6.78238L15.8004 6.78239L16.1168 6.53762ZM12.4708 4.16309L12.1808 3.8876L11.7069 4.38651L12.375 4.55144L12.4708 4.16309ZM12.8649 1.96326L13.2325 1.8055L13.2324 1.80527L12.8649 1.96326ZM9.13145 1.96326L8.76397 1.80527L8.76387 1.80551L9.13145 1.96326ZM9.5255 4.16309L9.61631 4.55265L10.2966 4.39406L9.8155 3.88759L9.5255 4.16309ZM5.90994 6.45232L6.22307 6.70121L6.22331 6.70092L5.90994 6.45232ZM4.50025 12.5968H4.10025L4.10025 12.5978L4.50025 12.5968ZM1.28275 20.3602L1.56435 20.6443L1.56475 20.6439L1.28275 20.3602ZM1.19337 20.804L0.823704 20.9568L0.824579 20.9589L1.19337 20.804ZM1.57118 21.0549V20.6549L1.56872 20.6549L1.57118 21.0549ZM8.18896 21.0549L8.58437 20.9945L8.53249 20.6549H8.18896V21.0549ZM13.8112 21.0549V20.6549H13.4676L13.4158 20.9945L13.8112 21.0549ZM20.429 21.0549L20.4314 20.6549H20.429V21.0549ZM20.8068 20.804L21.1756 20.9589L21.1765 20.9568L20.8068 20.804ZM20.7174 20.3602L20.4354 20.6439L20.4358 20.6443L20.7174 20.3602ZM17.4999 12.5968L17.3911 12.2119L17.1006 12.294L17.0999 12.5959L17.4999 12.5968ZM12.1264 2.30742L12.4961 2.15475L12.496 2.15435L12.1264 2.30742ZM11.8624 3.63587L12.1448 3.91913L12.1456 3.91829L11.8624 3.63587ZM10.5339 3.89992L10.3808 4.26947L10.3812 4.26964L10.5339 3.89992ZM9.00948 21.0549V20.6549H8.51961L8.61756 21.1348L9.00948 21.0549ZM12.9906 21.0549L13.3825 21.1348L13.4805 20.6549H12.9906V21.0549ZM2.50121 20.2424L2.19726 19.9823L1.6326 20.6424H2.50121V20.2424ZM5.31233 12.5968H4.91233L4.91233 12.5981L5.31233 12.5968ZM5.31233 10.4924H5.71233L5.71233 10.4919L5.31233 10.4924ZM7.07443 6.3701L7.35038 6.65967L7.35055 6.65952L7.07443 6.3701ZM11.276 4.80503L11.3006 4.40576L11.2953 4.4055L11.276 4.80503ZM15.1568 6.64838L14.863 6.91979L14.863 6.9198L15.1568 6.64838ZM16.6873 10.663L16.2873 10.6562V10.663H16.6873ZM16.6873 12.5968L17.0873 12.5981V12.5968H16.6873ZM19.4985 20.2424V20.6424H20.367L19.8024 19.9823L19.4985 20.2424ZM17.9001 12.5968V10.663H17.1001V12.5968H17.9001ZM17.9001 10.6677C17.9184 9.08547 17.4014 7.54428 16.4332 6.29286L15.8004 6.78239C16.6583 7.89124 17.1163 9.25669 17.1001 10.6584L17.9001 10.6677ZM16.4332 6.29286C15.465 5.04139 14.1025 4.15389 12.5667 3.77475L12.375 4.55144C13.7355 4.8873 14.9426 5.67353 15.8004 6.78238L16.4332 6.29286ZM12.7608 4.43859C13.4306 3.73355 13.6154 2.69782 13.2325 1.8055L12.4973 2.12102C12.7542 2.71959 12.6302 3.41453 12.1808 3.8876L12.7608 4.43859ZM13.2324 1.80527C12.8484 0.912108 11.9707 0.33333 10.9982 0.33333V1.13333C11.6506 1.13333 12.2395 1.52144 12.4974 2.12125L13.2324 1.80527ZM10.9982 0.33333C10.0256 0.33333 9.14798 0.912108 8.76397 1.80527L9.49892 2.12125C9.75681 1.52144 10.3457 1.13333 10.9982 1.13333V0.33333ZM8.76387 1.80551C8.38091 2.69784 8.56571 3.73355 9.2355 4.43859L9.8155 3.88759C9.36609 3.41453 9.24212 2.71962 9.49903 2.12101L8.76387 1.80551ZM9.43469 3.77354C7.91785 4.12713 6.56487 4.98316 5.59658 6.20371L6.22331 6.70092C7.07917 5.62208 8.27518 4.86528 9.61631 4.55265L9.43469 3.77354ZM5.59681 6.20342C4.62748 7.42292 4.10025 8.93455 4.10025 10.4925H4.90025C4.90025 9.11522 5.36632 7.77907 6.22307 6.70121L5.59681 6.20342ZM4.10025 10.4925V12.5968H4.90025V10.4925H4.10025ZM4.10025 12.5978C4.1071 15.4049 2.99172 18.0973 1.00075 20.0765L1.56475 20.6439C3.70736 18.514 4.90762 15.6165 4.90025 12.5959L4.10025 12.5978ZM1.00114 20.0761C0.769106 20.3061 0.698715 20.6544 0.82371 20.9568L1.56304 20.6512C1.56209 20.6489 1.56279 20.6458 1.56435 20.6443L1.00114 20.0761ZM0.824579 20.9589C0.950272 21.2582 1.24355 21.4569 1.57364 21.4549L1.56872 20.6549C1.56773 20.6549 1.56444 20.6545 1.56217 20.6491L0.824579 20.9589ZM1.57118 21.4549H8.18896V20.6549H1.57118V21.4549ZM7.79355 21.1153C8.03564 22.6999 9.39793 23.87 11.0001 23.87V23.07C9.79329 23.07 8.76681 22.1886 8.58437 20.9945L7.79355 21.1153ZM11.0001 23.87C12.6022 23.87 13.9647 22.6999 14.2066 21.1152L13.4158 20.9945C13.2335 22.1886 12.2069 23.07 11.0001 23.07V23.87ZM13.8112 21.4549H20.429V20.6549H13.8112V21.4549ZM20.4265 21.4549C20.7566 21.4569 21.0499 21.2582 21.1756 20.9589L20.438 20.6491C20.4357 20.6545 20.4324 20.6549 20.4314 20.6549L20.4265 21.4549ZM21.1765 20.9568C21.3014 20.6544 21.2311 20.3061 20.999 20.0761L20.4358 20.6443C20.4374 20.6458 20.4381 20.6489 20.4371 20.6512L21.1765 20.9568ZM20.9994 20.0765C19.0084 18.0973 17.8931 15.4049 17.8999 12.5978L17.0999 12.5959C17.0926 15.6165 18.2928 18.5139 20.4354 20.6439L20.9994 20.0765ZM17.6087 12.9818L17.6089 12.9817L17.3913 12.2119L17.3911 12.2119L17.6087 12.9818ZM11.0001 1.95485C11.3311 1.95485 11.63 2.15413 11.7569 2.4605L12.496 2.15435C12.2451 1.54868 11.6543 1.15485 11.0001 1.15485V1.95485ZM11.7567 2.4601C11.883 2.76604 11.8134 3.11846 11.5791 3.35344L12.1456 3.91829C12.608 3.45449 12.7456 2.7588 12.4961 2.15475L11.7567 2.4601ZM11.5799 3.3526C11.3449 3.58689 10.9925 3.65655 10.6866 3.53021L10.3812 4.26964C10.9853 4.5191 11.681 4.38154 12.1448 3.91913L11.5799 3.3526ZM10.687 3.53038C10.3806 3.40346 10.1813 3.10458 10.1813 2.7736H9.38134C9.38134 3.42777 9.77518 4.01858 10.3808 4.26947L10.687 3.53038ZM10.1813 2.7736C10.1813 2.32117 10.5477 1.95485 11.0001 1.95485V1.15485C10.1058 1.15485 9.38134 1.87934 9.38134 2.7736H10.1813ZM11.0001 22.2799C10.2243 22.2799 9.55634 21.7341 9.4014 20.9749L8.61756 21.1348C8.84851 22.2666 9.84419 23.0799 11.0001 23.0799V22.2799ZM9.00948 21.4549H12.9906V20.6549H9.00948V21.4549ZM12.5987 20.9749C12.4437 21.7341 11.7758 22.2799 11 22.2799V23.0799C12.1559 23.0799 13.1515 22.2666 13.3825 21.1348L12.5987 20.9749ZM11 23.0799H11.0001V22.2799H11V23.0799ZM2.80516 20.5024C4.68938 18.2999 5.72201 15.4945 5.71233 12.5955L4.91233 12.5981C4.92137 15.3052 3.9571 17.9253 2.19726 19.9823L2.80516 20.5024ZM5.71233 12.5968V10.4924H4.91233V12.5968H5.71233ZM5.71233 10.4919C5.71044 9.04343 6.30246 7.65831 7.35038 6.65967L6.79848 6.08053C5.59173 7.23053 4.91016 8.82543 4.91233 10.4929L5.71233 10.4919ZM7.35055 6.65952C8.39848 5.65973 9.81007 5.13468 11.2567 5.20457L11.2953 4.4055C9.63031 4.32506 8.00505 4.9294 6.79831 6.08069L7.35055 6.65952ZM11.2514 5.20428C12.6312 5.28933 13.9253 5.90461 14.863 6.91979L15.4506 6.37698C14.3733 5.2106 12.8864 4.50355 11.3006 4.40579L11.2514 5.20428ZM14.863 6.9198C15.8015 7.93588 16.311 9.27331 16.2874 10.6562L17.0873 10.6699C17.1144 9.08129 16.5291 7.54447 15.4506 6.37697L14.863 6.9198ZM16.2873 10.663V12.5968H17.0873V10.663H16.2873ZM16.2873 12.5955C16.2779 15.4945 17.3104 18.3 19.1945 20.5024L19.8024 19.9823C18.0427 17.9254 17.0785 15.3052 17.0873 12.5981L16.2873 12.5955ZM19.4985 19.8424H2.50121V20.6424H19.4985V19.8424Z" fill="#213F7D" mask="url(#path-1-outside-1_40117_17)"/>
</svg>
